# xmcd
# 
# Track frame offsets:
#   150
#   15507
#   36484
#   53187
#   75527
#   93845
#   110517
#   124610
#   142423
#   156638
#   178651
#   197910
#   216591
#   234784
#   253041
# 
# Disc length: 3603 seconds
# 
# Revision: 1
# Processed by: cddbd v1.5.2PL0 Copyright (c) Steve Scherf et al.
# Submitted via: Synapstar 1.0 
# 
DISCID=d80e110f
DTITLE=MONTH - CB60370
DYEAR=2007
DGENRE=Country
TTITLE0=TOBY KEITH - GET MY DRINK ON
TTITLE1=BRAD PAISLEY - LETTER TO ME
TTITLE2=REBA MCENTIRE and FAITH HILL - SLEEPING WITH THE TELEPHONE
TTITLE3=RASCAL FLATTS - WINNER AT A LOSING GAME
TTITLE4=BROOKS AND DUNN - GOD MUST BE BUSY
TTITLE5=TERRI CLARK - IN MY NEXT LIFE
TTITLE6=JACK INGRAM - MAYBE SHE'LL GET LONELY
TTITLE7=JOSH GRACIN - WE WEREN'T CRAZY
TTITLE8=JYPSI - LOVE IS A DRUG
TTITLE9=ALAN JACKSON - SMALL TOWN SOUTHERN MAN
TTITLE10=LUKE BRYAN - WE RODE IN TRUCKS
TTITLE11=PHIL VASSER - LOVE IS A BEAUTIFUL THING
TTITLE12=LORI MCKENNA - UNGLAMOROUS
TTITLE13=LADY ANTEBELLUM - LOVE DON'T LIVE HERE
TTITLE14=LEE BRICE - HAPPY ENDINGS
EXTD=MediaType: Karaoke CD+G Producer: Chartbuster
EXTT0=
EXTT1=
EXTT2=
EXTT3=
EXTT4=
EXTT5=
EXTT6=
EXTT7=
EXTT8=
EXTT9=
EXTT10=
EXTT11=
EXTT12=
EXTT13=
EXTT14=
PLAYORDER=
